<?xml version="1.0" encoding="UTF-8" standalone="no"?>
<!-- Generator: Adobe Illustrator 16.0.0, SVG Export Plug-In . SVG Version: 6.00 Build 0)  -->

<svg
   xmlns:dc="http://purl.org/dc/elements/1.1/"
   xmlns:cc="http://creativecommons.org/ns#"
   xmlns:rdf="http://www.w3.org/1999/02/22-rdf-syntax-ns#"
   xmlns:svg="http://www.w3.org/2000/svg"
   xmlns="http://www.w3.org/2000/svg"
   xmlns:sodipodi="http://sodipodi.sourceforge.net/DTD/sodipodi-0.dtd"
   xmlns:inkscape="http://www.inkscape.org/namespaces/inkscape"
   version="1.1"
   id="Camada_1"
   x="0px"
   y="0px"
   width="100px"
   height="82.382px"
   viewBox="0 8.808 100 82.382"
   enable-background="new 0 8.808 100 82.382"
   xml:space="preserve"
   inkscape:version="0.48.4 r9939"
   sodipodi:docname="new-game.svg"><metadata
     id="metadata3023"><rdf:RDF><cc:Work
         rdf:about=""><dc:format>image/svg+xml</dc:format><dc:type
           rdf:resource="http://purl.org/dc/dcmitype/StillImage" /></cc:Work></rdf:RDF></metadata><defs
     id="defs3021" /><sodipodi:namedview
     pagecolor="#ffffff"
     bordercolor="#666666"
     borderopacity="1"
     objecttolerance="10"
     gridtolerance="10"
     guidetolerance="10"
     inkscape:pageopacity="0"
     inkscape:pageshadow="2"
     inkscape:window-width="1366"
     inkscape:window-height="706"
     id="namedview3019"
     showgrid="false"
     inkscape:zoom="2.9132576"
     inkscape:cx="50"
     inkscape:cy="41.191002"
     inkscape:window-x="0"
     inkscape:window-y="27"
     inkscape:window-maximized="1"
     inkscape:current-layer="Camada_1" /><path
     d="M 93.15625 0 C 93.15625 5.914 88.3505 10.71875 82.4375 10.71875 L 64.0625 10.71875 C 54.3745 10.71875 46.46875 18.59325 46.46875 28.28125 L 53.3125 28.28125 C 53.311629 23.128222 56.990603 18.805781 61.84375 17.78125 C 61.863809 17.778111 61.885928 17.784342 61.90625 17.78125 C 62.059805 17.74974 62.219153 17.743597 62.375 17.71875 C 62.433012 17.711654 62.471189 17.694319 62.53125 17.6875 C 62.541488 17.686024 62.552253 17.688947 62.5625 17.6875 C 62.938623 17.645267 63.40725 17.595342 63.875 17.5625 C 63.937892 17.561407 63.999353 17.5625 64.0625 17.5625 L 82.4375 17.5625 C 83.861601 17.5625 85.235728 17.383856 86.5625 17.0625 L 86.8125 17.0625 L 87.0625 16.9375 C 94.50898 14.899553 100 8.0847481 100 0 L 93.15625 0 z M 26.09375 30.1875 C 22.57375 30.1875 19.1585 30.887 15.9375 32.25 C 12.8295 33.565 10.05025 35.44875 7.65625 37.84375 C 5.26125 40.23775 3.3785 43.017 2.0625 46.125 C 0.7005 49.346 0 52.76325 0 56.28125 C 0 59.80325 0.6985 63.2165 2.0625 66.4375 C 3.3775 69.5455 5.26125 72.353 7.65625 74.75 C 10.05025 77.144 12.8295 78.9975 15.9375 80.3125 C 19.1595 81.6735 22.57375 82.375 26.09375 82.375 C 30.20775 82.375 34.2935 81.39525 37.9375 79.53125 C 40.3845 78.28125 42.64875 76.6415 44.59375 74.6875 L 55.09375 74.6875 C 55.150526 74.697135 55.19932 74.707682 55.25 74.71875 C 57.188836 76.659005 59.410887 78.287963 61.84375 79.53125 C 65.48875 81.39425 69.60675 82.375 73.71875 82.375 C 77.23975 82.375 80.653 81.6755 83.875 80.3125 C 86.982 78.9985 89.76225 77.144 92.15625 74.75 C 94.55125 72.354 96.436 69.5455 97.75 66.4375 C 99.112 63.2165 99.8125 59.80225 99.8125 56.28125 C 99.8125 52.76125 99.114 49.346 97.75 46.125 C 96.439 43.018 94.55125 40.23875 92.15625 37.84375 C 89.76225 35.44875 86.982 33.566 83.875 32.25 C 81.92909 31.427683 79.911287 30.859976 77.84375 30.53125 L 77.5 30.4375 L 77.1875 30.4375 C 76.043613 30.285594 74.888913 30.1875 73.71875 30.1875 L 26.09375 30.1875 z M 25.78125 37.03125 C 25.862606 37.02809 26.010056 37.034347 26.09375 37.03125 L 69.75 37.03125 C 72.69935 37.100582 75.033957 37.184006 76.6875 37.28125 C 80.811704 37.921539 84.49228 39.867482 87.3125 42.6875 C 90.796375 46.171125 92.96875 50.96575 92.96875 56.28125 C 92.96675 66.91325 84.35175 75.53125 73.71875 75.53125 C 67.42275 75.53125 61.8245 72.51975 58.3125 67.84375 L 41.5 67.84375 C 37.988 72.51975 32.39075 75.53125 26.09375 75.53125 C 25.938174 75.53125 25.779693 75.53492 25.625 75.53125 C 15.209024 75.284129 6.84375 66.758645 6.84375 56.28125 C 6.84375 46.314687 14.419238 38.110844 24.125 37.125 C 24.448525 37.092139 24.765692 37.079132 25.09375 37.0625 C 25.340976 37.051096 25.506417 37.041927 25.78125 37.03125 z M 24.15625 44.75 C 23.09325 44.75 22.25 45.59325 22.25 46.65625 L 22.25 52.4375 L 16.46875 52.4375 C 15.40575 52.4375 14.5625 53.311 14.5625 54.375 L 14.5625 58.21875 C 14.5625 59.28175 15.40675 60.15625 16.46875 60.15625 L 20.8125 60.15625 L 22.25 60.21875 L 22.25 65.90625 C 22.25 66.97025 23.09325 67.84375 24.15625 67.84375 L 28.03125 67.84375 C 29.09425 67.84375 29.9375 66.97125 29.9375 65.90625 L 29.9375 60.15625 L 35.71875 60.15625 C 36.78175 60.15625 37.65625 59.28275 37.65625 58.21875 L 37.65625 54.375 C 37.65625 53.311 36.78075 52.4375 35.71875 52.4375 L 29.9375 52.4375 L 29.9375 46.65625 C 29.9375 45.59425 29.09325 44.75 28.03125 44.75 L 24.15625 44.75 z M 73.71875 44.75 C 71.593006 44.75 69.875 46.468006 69.875 48.59375 C 69.875 50.719494 71.593006 52.4375 73.71875 52.4375 C 75.844494 52.4375 77.5625 50.719494 77.5625 48.59375 C 77.5625 46.468006 75.844494 44.75 73.71875 44.75 z M 66 52.4375 C 63.873704 52.4375 62.15625 54.154954 62.15625 56.28125 C 62.15625 58.407546 63.873704 60.125 66 60.125 C 68.126297 60.125 69.875 58.407546 69.875 56.28125 C 69.875 54.154954 68.126297 52.4375 66 52.4375 z M 81.40625 52.4375 C 79.279954 52.4375 77.5625 54.154954 77.5625 56.28125 C 77.5625 58.407546 79.279954 60.125 81.40625 60.125 C 83.532547 60.125 85.25 58.407546 85.25 56.28125 C 85.25 54.154954 83.532547 52.4375 81.40625 52.4375 z M 73.71875 60.125 C 71.593006 60.125 69.875 61.874256 69.875 64 C 69.875 66.125744 71.593006 67.84375 73.71875 67.84375 C 75.844494 67.84375 77.5625 66.125744 77.5625 64 C 77.5625 61.874256 75.844494 60.125 73.71875 60.125 z "
     id="path3005"
     transform="translate(0,8.8079981)"
     style="stroke:#ffffff;fill:#ffffff" /></svg>